# xmcd
# 
# Track frame offsets:
#     183
#     26308
#     43333
#     60858
#     71795
#     98033
#     123483
#     141733
#     166458
#     185653
# 
# Disc length: 2605
# 
# Revision: 22
# Processed by: cddbd v1.5.2PL0 Copyright (c) Steve Scherf et al.
# Submitted via: fre:ac v1.0.31
# 
DISCID=920a2b0a
DTITLE=BAP - Für Usszeschnigge!
DYEAR=1981
DGENRE=Rock
TTITLE0=Verdamp lang her
TTITLE1=Südstadt verzäll nix
TTITLE2=Jraaduss
TTITLE3=Waschsalon
TTITLE4=Jupp
TTITLE5=Frau, ich freu mich
TTITLE6=Müsli Män
TTITLE7=Fuhl ahm Strand
TTITLE8=Ens em Vertraue
TTITLE9=Wo mer endlich Sommer hann
EXTD=
EXTT0=
EXTT1=
EXTT2=
EXTT3=
EXTT4=
EXTT5=
EXTT6=
EXTT7=
EXTT8=
EXTT9=
PLAYORDER=
